<?xml version="1.0" encoding="iso-8859-1"?>
<!-- Generator: Adobe Illustrator 18.1.1, SVG Export Plug-In . SVG Version: 6.00 Build 0)  -->
<!DOCTYPE svg PUBLIC "-//W3C//DTD SVG 1.1//EN" "http://www.w3.org/Graphics/SVG/1.1/DTD/svg11.dtd">
<svg version="1.1" id="Layer_1" xmlns="http://www.w3.org/2000/svg" xmlns:xlink="http://www.w3.org/1999/xlink" x="0px" y="0px"
	 viewBox="0 0 302.811 54.318" style="enable-background:new 0 0 302.811 54.318;" xml:space="preserve">
<g>
	<g>
		<path style="fill:#6B7B8A;" d="M148.977,45.826c-0.793,0-1.436,0.003-1.976,0.007h-8.912c-0.106-0.002-0.205-0.005-0.315-0.007
			c-10.053-0.25-17.572-8.389-17.572-18.664v-0.153c0-10.282,7.353-18.529,17.332-18.529c6.001,0,9.819,1.966,14.885,6.209
			l4.49-7.666C151.765,3.344,146.493,0,137.608,0c-15.906,0-27.085,12.231-27.085,27.162v0.146c0,15.084,11.405,27.01,26.709,27.01
			h0.156h11.796l4.973-8.492H148.977z"/>
		<path style="fill:#6B7B8A;" d="M98.717,8.107c-2.48-2.18-5.332-3.806-8.557-4.871c-3.224-1.069-6.573-1.602-10.046-1.602H59.355
			v40.586h9.375V10.118h8.557c2.876,0,5.52,0.333,7.927,1.005c2.404,0.669,4.487,1.711,6.249,3.125
			c1.759,1.414,3.137,3.261,4.13,5.544c0.993,2.283,1.49,5.011,1.49,8.184c0,3.225-0.56,5.965-1.675,8.224
			c-1.117,2.255-2.643,4.091-4.577,5.505c-1.935,1.413-4.203,2.456-6.809,3.127c-2.605,0.669-5.369,1.002-8.297,1.002h-1.256h-1.469
			v0.004H58.926v-0.004H57.43L31.164,0.34L0,54.318h47.96l-4.902-8.492H14.708l16.456-28.503L47.62,45.826H47.62l4.902,8.492h9.807
			H79c3.173,0,6.409-0.533,9.711-1.599c3.297-1.069,6.297-2.679,9.001-4.838c2.704-2.159,4.912-4.884,6.625-8.184
			c1.711-3.301,2.568-7.206,2.568-11.721c0-4.463-0.745-8.345-2.235-11.644C103.183,13.033,101.198,10.29,98.717,8.107"/>
		<polygon style="fill:#6B7B8A;" points="264.585,0.937 302.43,0.937 302.43,9.326 273.965,9.326 273.965,23.204 298.999,23.204 
			298.999,31.593 273.965,31.593 273.965,45.929 302.811,45.929 302.811,54.318 264.585,54.318 		"/>
		<path style="fill:#6B7B8A;" d="M252.464,8.106c-2.48-2.179-5.332-3.805-8.557-4.871c-3.224-1.069-6.572-1.602-10.046-1.602
			h-20.759v40.586h9.374V10.117h8.556c2.876,0,5.52,0.333,7.928,1.005c2.403,0.669,4.486,1.71,6.249,3.124
			c1.759,1.414,3.137,3.261,4.13,5.545c0.993,2.282,1.49,5.011,1.49,8.184c0,3.225-0.56,5.965-1.675,8.224
			c-1.116,2.255-2.643,4.091-4.577,5.505c-1.935,1.413-4.202,2.456-6.809,3.127c-2.604,0.669-5.369,1.002-8.297,1.002h-1.255h-1.469
			v0.004h-14.075v-0.004h-1.495L184.912,0.34l-31.164,53.978h47.96l-4.903-8.492h-28.348l16.455-28.503l16.457,28.503h-0.001
			l4.903,8.492h9.806h16.672c3.172,0,6.409-0.533,9.71-1.599c3.297-1.069,6.297-2.679,9.001-4.838
			c2.704-2.159,4.912-4.884,6.625-8.184c1.711-3.301,2.568-7.206,2.568-11.721c0-4.463-0.745-8.345-2.235-11.645
			C256.931,13.033,254.945,10.29,252.464,8.106"/>
	</g>
</g>
</svg>
