<?xml version="1.0" encoding="iso-8859-1"?>
<!-- Generator: Adobe Illustrator 18.1.1, SVG Export Plug-In . SVG Version: 6.00 Build 0)  -->
<!DOCTYPE svg PUBLIC "-//W3C//DTD SVG 1.1//EN" "http://www.w3.org/Graphics/SVG/1.1/DTD/svg11.dtd">
<svg version="1.1" id="Layer_1" xmlns="http://www.w3.org/2000/svg" xmlns:xlink="http://www.w3.org/1999/xlink" x="0px" y="0px"
	 viewBox="0 0 35.802 40" style="enable-background:new 0 0 35.802 40;" xml:space="preserve">
<g id="Bq7P6r.tif">
	<g>
		<path style="fill:#AFBAC4;" d="M13.902,23.601c-1.713-2.753-1.713-2.753-1.06-5.406c-0.327,0-0.65-0.013-0.972,0.002
			c-2.182,0.1-4.211-0.354-5.991-1.677c-1.874-1.393-2.978-3.278-3.193-5.582C2.305,6.85,4.161,3.884,7.558,1.772
			c1.406-0.874,2.972-1.268,4.588-1.519C13.578,0.031,15.017-0.003,16.461,0c2.998,0.006,5.996,0.002,8.993,0.002
			c0.197,0,0.395,0,0.592,0c0.01,0.03,0.021,0.06,0.031,0.09c-0.088,0.068-0.169,0.148-0.265,0.201
			c-0.879,0.484-1.755,0.974-2.647,1.434c-0.231,0.119-0.512,0.189-0.773,0.196c-0.831,0.024-1.663,0.009-2.535,0.106
			c0.183,0.168,0.364,0.337,0.548,0.504c1.332,1.212,2.29,2.674,2.687,4.428c0.73,3.225-0.097,5.993-2.616,8.206
			c-0.767,0.674-1.53,1.353-2.274,2.052c-0.568,0.534-0.771,1.213-0.713,1.991c0.036,0.48,0.177,0.905,0.536,1.219
			c0.743,0.647,1.516,1.26,2.258,1.908c0.907,0.793,1.833,1.571,2.684,2.421c2.543,2.541,2.731,6.265,1.102,9.208
			c-1.26,2.275-3.236,3.719-5.587,4.711c-2.131,0.9-4.364,1.277-6.665,1.32c-2.243,0.042-4.445-0.175-6.56-0.982
			c-1.242-0.474-2.382-1.114-3.339-2.046c-1.826-1.78-2.466-4.341-1.407-7.011c0.581-1.464,1.536-2.592,2.814-3.479
			c1.492-1.036,3.157-1.654,4.906-2.087c1.761-0.437,3.555-0.619,5.356-0.757C13.678,23.626,13.767,23.615,13.902,23.601z
			 M13.775,37.679c2.016,0.05,3.432-0.306,4.491-0.778c2.496-1.111,3.765-3.648,3.053-6.143c-0.349-1.222-1.138-2.163-2.096-2.946
			c-1.031-0.843-2.112-1.626-3.187-2.413c-0.176-0.129-0.434-0.206-0.653-0.203c-0.875,0.011-1.753,0.03-2.625,0.105
			c-1.737,0.15-3.432,0.499-4.988,1.322c-2.872,1.519-3.771,4.251-2.606,6.965c0.629,1.465,1.828,2.394,3.232,3.058
			C10.095,37.452,11.91,37.708,13.775,37.679z M18.655,11.19c-0.095-0.708-0.159-1.472-0.304-2.22
			c-0.354-1.832-1.037-3.532-2.213-4.998c-1.18-1.472-2.623-2.386-4.623-2.162C9.631,2.021,7.959,3.491,7.528,5.363
			c-0.366,1.586-0.243,3.155,0.126,4.713c0.497,2.1,1.387,3.988,3.06,5.433c1.282,1.107,2.773,1.387,4.353,0.949
			c1.696-0.469,2.975-1.474,3.356-3.308C18.552,12.529,18.576,11.887,18.655,11.19z"/>
		<path style="fill:#AFBAC4;" d="M29.337,16.939c0-1.355,0-2.645,0-4.011c0.843-0.072,1.633-0.028,2.5-0.028
			c0,1.352,0,2.655,0,4.025c1.361,0,2.647,0,3.965,0c0,0.843,0,1.619,0,2.469c-1.29,0-2.575,0-3.941,0c0,1.373,0,2.675,0,4.005
			c-0.86,0-1.638,0-2.497,0c0-1.315,0-2.619,0-3.971c-1.353,0-2.627,0-3.946,0c0-0.84,0-1.63,0-2.489
			C26.709,16.939,27.995,16.939,29.337,16.939z"/>
	</g>
</g>
</svg>
