<?xml version="1.0" encoding="iso-8859-1"?>
<!-- Generator: Adobe Illustrator 18.1.1, SVG Export Plug-In . SVG Version: 6.00 Build 0)  -->
<!DOCTYPE svg PUBLIC "-//W3C//DTD SVG 1.1//EN" "http://www.w3.org/Graphics/SVG/1.1/DTD/svg11.dtd">
<svg version="1.1" id="Layer_1" xmlns="http://www.w3.org/2000/svg" xmlns:xlink="http://www.w3.org/1999/xlink" x="0px" y="0px"
	 viewBox="0 0 33.636 37.273" style="enable-background:new 0 0 33.636 37.273;" xml:space="preserve">
<g>
	<g>
		<g>
			<rect x="0.909" y="11.818" style="fill:#AFBAC4;" width="7.273" height="25.455"/>
		</g>
		<g>
			<path style="fill:#AFBAC4;" d="M28.672,13.269c-2.708-1.52-6.703-1.648-9.581-0.334v-1.117h-7.273v25.455h7.273v-16.28
				l2.997-1.442c0.735-0.353,2.346-0.321,3.027,0.062c0.515,0.288,1.248,1.477,1.248,2.205v15.455h7.273V21.818
				C33.636,18.477,31.548,14.879,28.672,13.269z"/>
		</g>
		<g>
			<path style="fill:#AFBAC4;" d="M4.545,0C2.031,0,0,2.035,0,4.545s2.031,4.545,4.545,4.545c2.514,0,4.545-2.035,4.545-4.545
				S7.06,0,4.545,0z"/>
		</g>
	</g>
</g>
</svg>
