<?xml version="1.0" encoding="iso-8859-1"?>
<!-- Generator: Adobe Illustrator 18.1.1, SVG Export Plug-In . SVG Version: 6.00 Build 0)  -->
<!DOCTYPE svg PUBLIC "-//W3C//DTD SVG 1.1//EN" "http://www.w3.org/Graphics/SVG/1.1/DTD/svg11.dtd">
<svg version="1.1" id="Layer_1" xmlns="http://www.w3.org/2000/svg" xmlns:xlink="http://www.w3.org/1999/xlink" x="0px" y="0px"
	 viewBox="0 0 38.778 31.514" style="enable-background:new 0 0 38.778 31.514;" xml:space="preserve">
<g>
	<path style="fill:#AFBAC4;" d="M38.778,3.731c-1.427,0.632-2.959,1.061-4.568,1.252c1.643-0.985,2.903-2.543,3.497-4.401
		c-1.537,0.911-3.24,1.574-5.052,1.929C31.205,0.966,29.137,0,26.848,0c-4.394,0-7.955,3.563-7.955,7.956
		c0,0.624,0.069,1.23,0.206,1.812C12.486,9.435,6.624,6.27,2.7,1.454C2.015,2.632,1.623,3.999,1.623,5.456
		c0,2.758,1.404,5.195,3.539,6.621c-1.303-0.04-2.53-0.399-3.603-0.993v0.099c0,3.857,2.741,7.071,6.382,7.801
		c-0.668,0.186-1.371,0.281-2.097,0.281c-0.512,0-1.011-0.048-1.496-0.142c1.011,3.16,3.949,5.462,7.431,5.524
		c-2.724,2.134-6.154,3.406-9.882,3.406c-0.643,0-1.276-0.035-1.897-0.11c3.521,2.255,7.703,3.573,12.196,3.573
		c14.634,0,22.635-12.122,22.635-22.635c0-0.347-0.008-0.691-0.022-1.029C36.365,6.727,37.715,5.326,38.778,3.731L38.778,3.731z"/>
</g>
</svg>
